<svg width="28" height="28" viewBox="0 0 28 28" fill="none" xmlns="http://www.w3.org/2000/svg">
    <g clip-path="url(#clip0_86_31)">
        <path fill-rule="evenodd" clip-rule="evenodd"
            d="M4.03866 6.4252V14.6753C4.03866 20.8353 9.49536 23.7967 13.8782 26.1767L13.9951 26.2393L14.1137 26.1767C18.4965 23.7967 23.9532 20.8353 23.9532 14.6753V6.4252L13.9952 1.73437L4.03864 6.4252H4.03866ZM13.9951 28.0017C13.8601 28.0017 13.725 27.9671 13.6015 27.9012L13.0925 27.6245C8.57632 25.172 2.3916 21.8153 2.3916 14.6753V5.90306C2.3916 5.58354 2.57608 5.29365 2.86431 5.15694L13.646 0.0790563C13.8667 -0.0263521 14.1252 -0.0263521 14.346 0.0790563L25.1276 5.15697C25.4158 5.29368 25.6003 5.58356 25.6003 5.90309V14.6753C25.6003 21.8153 19.414 25.172 14.8994 27.6245L14.3904 27.9012C14.2669 27.9671 14.1318 28.0017 13.9951 28.0017ZM20.8079 20.0151H16.2373L14.9015 18.681V17.4588H13.1984V15.7558H11.978L11.1248 14.9026C11.0968 14.9043 11.0688 14.9043 11.0408 14.9043C8.47304 14.9043 6.38456 12.8158 6.38456 10.248C6.38456 7.68025 8.47304 5.59013 11.0408 5.59013C13.6086 5.59013 15.697 7.68025 15.697 10.248C15.697 10.276 15.697 10.304 15.6954 10.3304L20.8079 15.4445L20.8079 20.0151ZM16.9192 18.368H19.1608V16.1264L13.9775 10.9398L14.0352 10.3963C14.05 8.58942 12.6994 7.2372 11.0408 7.2372C9.38221 7.2372 8.03162 8.58942 8.03162 10.248C8.03162 11.9083 9.38221 13.2572 11.0408 13.2572L11.7293 13.1798L12.6599 14.1087H14.8455V15.8118H16.5486V17.9991L16.9192 18.368ZM12.3487 10.2951C12.3487 10.977 11.7953 11.5304 11.1134 11.5304C10.4316 11.5304 9.87814 10.977 9.87814 10.2951C9.87814 9.61323 10.4316 9.05982 11.1134 9.05982C11.7953 9.05982 12.3487 9.61323 12.3487 10.2951Z"
            fill="#292524" />
    </g>
    <defs>
        <clipPath id="clip0_86_31">
            <rect width="28" height="28" fill="white" />
        </clipPath>
    </defs>
</svg>