<svg width="113" height="112" viewBox="0 0 113 112" fill="none" xmlns="http://www.w3.org/2000/svg">
<g clip-path="url(#clip0_172_8)">
<path d="M38.5 74C41.6826 74 44.7348 72.7357 46.9853 70.4853C49.2357 68.2348 50.5 65.1826 50.5 62C50.5 58.8174 49.2357 55.7652 46.9853 53.5147C44.7348 51.2643 41.6826 50 38.5 50C35.3174 50 32.2652 51.2643 30.0147 53.5147C27.7643 55.7652 26.5 58.8174 26.5 62C26.5 65.1826 27.7643 68.2348 30.0147 70.4853C32.2652 72.7357 35.3174 74 38.5 74ZM38.5 56C40.0913 56 41.6174 56.6321 42.7426 57.7574C43.8679 58.8826 44.5 60.4087 44.5 62C44.5 63.5913 43.8679 65.1174 42.7426 66.2426C41.6174 67.3679 40.0913 68 38.5 68C36.9087 68 35.3826 67.3679 34.2574 66.2426C33.1321 65.1174 32.5 63.5913 32.5 62C32.5 60.4087 33.1321 58.8826 34.2574 57.7574C35.3826 56.6321 36.9087 56 38.5 56ZM53.5 80H23.5C19.5218 80 15.7064 81.5804 12.8934 84.3934C10.0804 87.2064 8.5 91.0218 8.5 95C8.5 97.3869 9.44822 99.6761 11.136 101.364C12.8239 103.052 15.1131 104 17.5 104H59.5C61.8869 104 64.1761 103.052 65.864 101.364C67.5518 99.6761 68.5 97.3869 68.5 95C68.5 91.0218 66.9196 87.2064 64.1066 84.3934C61.2936 81.5804 57.4782 80 53.5 80ZM59.5 98H17.5C16.7044 98 15.9413 97.6839 15.3787 97.1213C14.8161 96.5587 14.5 95.7956 14.5 95C14.5 92.6131 15.4482 90.3239 17.136 88.636C18.8239 86.9482 21.1131 86 23.5 86H53.5C55.8869 86 58.1761 86.9482 59.864 88.636C61.5518 90.3239 62.5 92.6131 62.5 95C62.5 95.7956 62.1839 96.5587 61.6213 97.1213C61.0587 97.6839 60.2956 98 59.5 98ZM104.5 23V53C104.5 56.9782 102.92 60.7936 100.107 63.6066C97.2936 66.4196 93.4782 68 89.5 68H72.742L61.624 79.124C61.3449 79.4024 61.0136 79.6231 60.6492 79.7734C60.2847 79.9237 59.8942 80.0007 59.5 80C59.1066 80.001 58.717 79.9234 58.354 79.772C57.8054 79.5452 57.3364 79.1608 57.0063 78.6673C56.6763 78.1739 56.5001 77.5936 56.5 77V65C56.5 64.2044 56.8161 63.4413 57.3787 62.8787C57.9413 62.3161 58.7044 62 59.5 62C60.2956 62 61.0587 62.3161 61.6213 62.8787C62.1839 63.4413 62.5 64.2044 62.5 65V69.758L69.376 62.876C69.6551 62.5976 69.9864 62.3769 70.3508 62.2266C70.7153 62.0763 71.1058 61.9993 71.5 62H89.5C91.8869 62 94.1761 61.0518 95.864 59.364C97.5518 57.6761 98.5 55.3869 98.5 53V23C98.5 20.6131 97.5518 18.3239 95.864 16.636C94.1761 14.9482 91.8869 14 89.5 14H47.5C45.1131 14 42.8239 14.9482 41.136 16.636C39.4482 18.3239 38.5 20.6131 38.5 23V41C38.5 41.7956 38.1839 42.5587 37.6213 43.1213C37.0587 43.6839 36.2956 44 35.5 44C34.7044 44 33.9413 43.6839 33.3787 43.1213C32.8161 42.5587 32.5 41.7956 32.5 41V23C32.5 19.0218 34.0804 15.2064 36.8934 12.3934C39.7064 9.58035 43.5218 8 47.5 8L89.5 8C93.4782 8 97.2936 9.58035 100.107 12.3934C102.92 15.2064 104.5 19.0218 104.5 23ZM57.376 44.876L70.258 32H59.5C58.7044 32 57.9413 31.6839 57.3787 31.1213C56.8161 30.5587 56.5 29.7956 56.5 29C56.5 28.2044 56.8161 27.4413 57.3787 26.8787C57.9413 26.3161 58.7044 26 59.5 26H77.5C77.8933 26.0002 78.2826 26.0776 78.646 26.228C79.3802 26.5358 79.9642 27.1198 80.272 27.854C80.4224 28.2174 80.4998 28.6067 80.5 29V47C80.5 47.7956 80.1839 48.5587 79.6213 49.1213C79.0587 49.6839 78.2956 50 77.5 50C76.7044 50 75.9413 49.6839 75.3787 49.1213C74.8161 48.5587 74.5 47.7956 74.5 47V36.242L61.624 49.124C61.3449 49.4024 61.0136 49.6231 60.6492 49.7734C60.2847 49.9237 59.8942 50.0007 59.5 50C59.1058 50.0007 58.7153 49.9237 58.3508 49.7734C57.9864 49.6231 57.6551 49.4024 57.376 49.124C57.0966 48.8453 56.875 48.5143 56.7237 48.1498C56.5725 47.7853 56.4946 47.3946 56.4946 47C56.4946 46.6054 56.5725 46.2147 56.7237 45.8502C56.875 45.4857 57.0966 45.1547 57.376 44.876Z" fill="#292524"/>
</g>
<defs>
<clipPath id="clip0_172_8">
<rect width="96" height="96" fill="white" transform="translate(8.5 8)"/>
</clipPath>
</defs>
</svg>
