<svg width="600" height="600" viewBox="0 0 600 600" fill="none" xmlns="http://www.w3.org/2000/svg">
    <path
        d="M188.003 188.545C174.748 188.545 164.003 199.29 164.003 212.545C164.003 225.799 174.748 236.545 188.003 236.545V188.545ZM412.003 236.545C425.258 236.545 436.003 225.799 436.003 212.545C436.003 199.29 425.258 188.545 412.003 188.545V236.545ZM216.003 270.433C202.748 270.433 192.003 281.178 192.003 294.433C192.003 307.687 202.748 318.433 216.003 318.433V270.433ZM384.003 318.433C397.258 318.433 408.003 307.687 408.003 294.433C408.003 281.178 397.258 270.433 384.003 270.433V318.433ZM193.219 76.0006V52L193.044 52.0013L193.219 76.0006ZM406.819 76.0006L407.002 52.0006H406.819V76.0006ZM524.003 194.945L500.003 194.768V194.945H524.003ZM524.003 339.361H500.003V339.537L524.003 339.361ZM406.787 458.305V482.305H406.963L406.787 458.305ZM193.219 458.305V434.305C189.11 434.305 185.07 435.361 181.485 437.37L193.219 458.305ZM76.0032 524.001H52.0032C52.0032 532.519 56.52 540.401 63.871 544.708C71.2217 549.015 80.3053 549.101 87.7373 544.935L76.0032 524.001ZM76.0032 194.945H100.004L100.003 194.768L76.0032 194.945ZM188.003 236.545H412.003V188.545H188.003V236.545ZM216.003 318.433H384.003V270.433H216.003V318.433ZM193.219 100.001H406.819V52.0006L193.219 52V100.001ZM406.637 100C458.589 100.393 500.384 142.819 500.003 194.768L548.003 195.121C548.579 116.666 485.456 52.5939 407.002 52.0006L406.637 100ZM500.003 194.945V339.361H548.003V194.945H500.003ZM500.003 339.537C500.186 364.49 490.451 388.49 472.934 406.263L507.123 439.956C533.574 413.114 548.278 376.868 548.003 339.185L500.003 339.537ZM472.934 406.263C455.421 424.036 431.565 434.122 406.611 434.305L406.963 482.305C444.643 482.029 480.675 466.797 507.123 439.956L472.934 406.263ZM406.787 434.305H193.219V482.305H406.787V434.305ZM181.485 437.37L64.2691 503.066L87.7373 544.935L204.953 479.239L181.485 437.37ZM100.003 524.001L100.004 194.945H52.0032V524.001H100.003ZM100.003 194.768C99.8192 169.817 109.556 145.814 127.07 128.041L92.8819 94.3494C66.4314 121.19 51.727 157.439 52.0038 195.121L100.003 194.768ZM127.07 128.041C144.585 110.269 168.442 100.182 193.394 100L193.044 52.0013C155.362 52.2758 119.332 67.5091 92.8819 94.3494L127.07 128.041Z"
        fill="#292524" />
</svg>