<svg width="160" height="161" viewBox="0 0 160 161" fill="none" xmlns="http://www.w3.org/2000/svg">
<path d="M113 30H135.5L131.5 58L119 67L107.5 69L90 87.5L87.5 102H100.5L102.5 117.5L110.5 122L118 138.5L46 139.5V123.5H57V107L67 105.5L68 88.5L52 70.5L36.5 63.5L27.5 53L22 30H45.5L48 50L70.5 82.5L87.5 84L107.5 65.5L113 30Z" fill="#FEF6EB"/>
<path d="M54 22L79 18L102.5 20.5L113 45L106.5 70.5L92.5 85L71 86.5L54 70.5L48.5 38.5L54 22Z" fill="#DED0B6"/>
<path d="M81 40V64" stroke="#FEF6EB" stroke-width="8" stroke-miterlimit="10" stroke-linecap="round" stroke-linejoin="round"/>
<path d="M69 52H93" stroke="#FEF6EB" stroke-width="8" stroke-miterlimit="10" stroke-linecap="round" stroke-linejoin="round"/>
<path d="M139.432 26.1429H112.002C111.902 26.1429 111.82 26.1931 111.724 26.1977C108.747 21.0594 105.474 18.2297 105.237 18.0331C104.418 17.3657 103.394 17 102.338 17H57.6605C56.6045 17 55.5804 17.3657 54.7667 18.0377C54.529 18.2343 51.2512 21.064 48.2797 26.2023C48.1837 26.1931 48.1014 26.1429 48.0008 26.1429H20.5715C19.2687 26.1429 18.0298 26.696 17.1658 27.6651C16.2972 28.6343 15.8857 29.928 16.0274 31.2171C17.5818 45.2103 27.7626 72.0766 54.9496 75.9029C57.9119 80.1269 61.4091 84.3966 65.5144 88.7166C65.7338 88.9497 66.0264 89.0732 66.2824 89.2514V99.2857H57.1393C54.6158 99.2857 52.5678 101.329 52.5678 103.857V117.571H43.4293C40.9058 117.571 38.8577 119.615 38.8577 122.143V140.429C38.8577 142.957 40.9058 145 43.4293 145H116.574C119.097 145 121.145 142.957 121.145 140.429V122.143C121.145 119.615 119.097 117.571 116.574 117.571H107.431V103.857C107.431 101.329 105.383 99.2857 102.859 99.2857H93.7162V89.256C93.9768 89.0777 94.2648 88.9497 94.4843 88.7211C98.5849 84.4057 102.082 80.1314 105.049 75.9074C132.236 72.0811 142.421 45.2149 143.971 31.2217C144.117 29.9326 143.701 28.6389 142.833 27.6697C141.973 26.696 140.735 26.1429 139.432 26.1429ZM26.0711 35.2857H44.6133C44.083 37.3566 43.6533 39.5417 43.5024 41.9737C43.0407 49.3383 44.6819 56.9634 48.3848 64.8034C33.6142 58.824 28.0186 43.3954 26.0711 35.2857ZM112.002 135.857H48.0008V126.714H57.1439H102.859H112.002V135.857ZM98.2878 117.571H61.7154V108.429H70.8585H89.1447H98.2878V117.571ZM75.4301 99.2857V90.1429H84.5732V99.2857H75.4301ZM89.1904 81H89.1447H70.8585H70.8128C58.0902 67.1989 51.9689 54.3349 52.6181 42.7417C53.1072 33.9463 57.441 28.3326 59.4937 26.1429H100.505C102.571 28.3463 106.896 33.9554 107.385 42.7463C108.03 54.3349 101.908 67.1989 89.1904 81ZM111.637 64.7669C115.33 56.9406 116.963 49.3246 116.501 41.9691C116.35 39.5417 115.92 37.3566 115.394 35.2857H133.896C131.898 43.3543 126.224 58.7646 111.637 64.7669Z" fill="#292524"/>
</svg>
