<svg width="40" height="40" viewBox="0 0 40 40" fill="none" xmlns="http://www.w3.org/2000/svg">
    <path
        d="M20 19.9999H20.0167M20 9.99992H20.0167M20 29.9999H20.0167M21.6667 19.9999C21.6667 20.9204 20.9205 21.6666 20 21.6666C19.0795 21.6666 18.3334 20.9204 18.3334 19.9999C18.3334 19.0794 19.0795 18.3333 20 18.3333C20.9205 18.3333 21.6667 19.0794 21.6667 19.9999ZM21.6667 29.9999C21.6667 30.9204 20.9205 31.6666 20 31.6666C19.0795 31.6666 18.3334 30.9204 18.3334 29.9999C18.3334 29.0794 19.0795 28.3333 20 28.3333C20.9205 28.3333 21.6667 29.0794 21.6667 29.9999ZM21.6667 9.99992C21.6667 10.9204 20.9205 11.6666 20 11.6666C19.0795 11.6666 18.3334 10.9204 18.3334 9.99992C18.3334 9.07945 19.0795 8.33325 20 8.33325C20.9205 8.33325 21.6667 9.07945 21.6667 9.99992Z"
        stroke="#292524" stroke-width="3" stroke-linecap="round" stroke-linejoin="round" />
</svg>