<svg width="160" height="161" viewBox="0 0 160 161" fill="none" xmlns="http://www.w3.org/2000/svg">
    <g clip-path="url(#clip0_69_3)">
        <path d="M86 137.5L140.5 83" stroke="#FEF6EB" stroke-width="13" />
        <path
            d="M123.818 93.818C122.061 95.5754 122.061 98.4246 123.818 100.182C125.575 101.939 128.425 101.939 130.182 100.182L123.818 93.818ZM139.818 77.818L123.818 93.818L130.182 100.182L146.182 84.182L139.818 77.818Z"
            fill="#DED0B6" />
        <path
            d="M73.3333 100.5H53.3333C40.9081 100.5 34.6956 100.5 29.7951 102.53C23.2609 105.237 18.0697 110.428 15.3631 116.962C13.3333 121.863 13.3333 128.075 13.3333 140.5M103.333 22.4384C113.106 26.3943 120 35.9754 120 47.1667M79.9992 143.833L93.4999 141.133C94.6766 140.898 95.2652 140.78 95.8139 140.565C96.3012 140.374 96.7646 140.126 97.1933 139.827C97.6773 139.489 98.1012 139.065 98.9506 138.216L143.333 93.8333C147.016 90.1513 147.015 84.182 143.333 80.5C139.651 76.818 133.682 76.818 130 80.5L85.6166 124.883C84.7679 125.732 84.3439 126.156 84.0066 126.64C83.7072 127.069 83.4593 127.532 83.2679 128.019C83.0533 128.568 82.9352 129.156 82.6999 130.333L79.9992 143.833ZM89.9999 47.1667C89.9999 61.8943 78.0606 73.8333 63.3333 73.8333C48.6057 73.8333 36.6666 61.8943 36.6666 47.1667C36.6666 32.4391 48.6057 20.5 63.3333 20.5C78.0606 20.5 89.9999 32.4391 89.9999 47.1667Z"
            stroke="black" stroke-width="10" stroke-linecap="round" stroke-linejoin="round" />
    </g>
    <defs>
        <clipPath id="clip0_69_3">
            <rect width="160" height="160" fill="white" transform="translate(0 0.5)" />
        </clipPath>
    </defs>
</svg>