<svg width="209" height="160" viewBox="0 0 209 160" fill="none" xmlns="http://www.w3.org/2000/svg">
<g clip-path="url(#clip0_19_60)">
<path d="M140 75V104.913C140 134.827 128.073 146.819 98.0903 146.819C98.0903 146.819 75.4635 147.227 62.1774 146.819C40.4896 146.152 21.9999 134.427 22 104.68C22.0001 74.9334 22 86.6921 22 75" stroke="#292524" stroke-width="8" stroke-linecap="round" stroke-linejoin="round"/>
<path d="M80.2 80C92.4 80 101.4 70.0674 100.2 57.867L95.7333 13.3334H64.6001L60.1335 57.867C58.9335 70.0674 68 80 80.2 80Z" stroke="#292524" stroke-width="8" stroke-linecap="round" stroke-linejoin="round"/>
<path d="M122.2 80C135.667 80 145.533 69.0667 144.2 55.6666L142.333 37.3332C139.933 19.9999 133.267 13.3334 115.8 13.3334H95.4666L100.133 60.0668C101.333 71.0667 111.2 80 122.2 80Z" stroke="#292524" stroke-width="8" stroke-linecap="round" stroke-linejoin="round"/>
<path d="M37.7999 80C48.7999 80 58.7331 71.0667 59.7998 60.0668L61.2667 45.3337L64.4666 13.3334H44.1333C26.6667 13.3334 20.0001 19.9999 17.6001 37.3332L15.7333 55.6666C14.3999 69.0667 24.3333 80 37.7999 80Z" stroke="#292524" stroke-width="8" stroke-linecap="round" stroke-linejoin="round"/>
<path d="M178.478 129.3L203 154ZM191.667 97.3333C191.667 122.37 171.37 142.667 146.333 142.667C121.296 142.667 101 122.37 101 97.3333C101 72.2964 121.296 52 146.333 52C171.37 52 191.667 72.2964 191.667 97.3333Z" fill="#FEF6EB"/>
<path d="M178.478 129.3L203 154M191.667 97.3333C191.667 122.37 171.37 142.667 146.333 142.667C121.296 142.667 101 122.37 101 97.3333C101 72.2964 121.296 52 146.333 52C171.37 52 191.667 72.2964 191.667 97.3333Z" stroke="#292524" stroke-width="8" stroke-linecap="round" stroke-linejoin="round"/>
<g clip-path="url(#clip1_19_60)">
<rect x="104" y="56" width="82.5" height="82.5" rx="41.25" fill="#FEF6EB"/>
<path fill-rule="evenodd" clip-rule="evenodd" d="M155.539 81H96.4617V122.143C96.4617 123.354 96.9816 124.518 97.9032 125.375C98.8277 126.232 100.08 126.714 101.386 126.714C112.51 126.714 139.49 126.714 150.615 126.714C151.92 126.714 153.173 126.232 154.097 125.375C155.019 124.518 155.539 123.354 155.539 122.143C155.539 110.566 155.539 81 155.539 81Z" fill="#DED0B6"/>
<path fill-rule="evenodd" clip-rule="evenodd" d="M96.4617 81.0001C96.4617 81.0001 100.353 73.7749 102.485 69.8137C103.32 68.264 105.025 67.2858 106.889 67.2858C114.99 67.2858 137.011 67.2858 145.112 67.2858C146.975 67.2858 148.681 68.264 149.515 69.8137C151.647 73.7749 155.539 81.0001 155.539 81.0001" fill="#DED0B6"/>
<path fill-rule="evenodd" clip-rule="evenodd" d="M145.111 65H106.889C104.092 65 101.535 66.4674 100.284 68.7897L94.2831 79.9372C94.1009 80.2549 94 80.616 94 81V122.143C94 123.962 94.7778 125.706 96.1637 126.991C97.5471 128.278 99.4252 129 101.385 129C112.511 129 139.489 129 150.615 129C152.575 129 154.453 128.278 155.836 126.991C157.222 125.706 158 123.962 158 122.143C158 110.566 158 81 158 81C158 80.616 157.899 80.2549 157.717 79.9372L151.716 68.7897C150.465 66.4674 147.908 65 145.111 65ZM135.846 83.2857V90.1429C135.846 91.3543 135.327 92.5177 134.404 93.3749C133.481 94.232 132.228 94.7143 130.923 94.7143C128.191 94.7143 123.809 94.7143 121.077 94.7143C119.772 94.7143 118.519 94.232 117.596 93.3749C116.673 92.5177 116.154 91.3543 116.154 90.1429V83.2857H98.9231V122.143C98.9231 122.749 99.1815 123.331 99.6443 123.759C100.105 124.189 100.732 124.429 101.385 124.429H150.615C151.268 124.429 151.895 124.189 152.356 123.759C152.818 123.331 153.077 122.749 153.077 122.143V83.2857H135.846ZM106.308 119.857H111.231C112.59 119.857 113.692 118.833 113.692 117.571C113.692 116.31 112.59 115.286 111.231 115.286H106.308C104.949 115.286 103.846 116.31 103.846 117.571C103.846 118.833 104.949 119.857 106.308 119.857ZM106.308 110.714H116.154C117.513 110.714 118.615 109.69 118.615 108.429C118.615 107.167 117.513 106.143 116.154 106.143H106.308C104.949 106.143 103.846 107.167 103.846 108.429C103.846 109.69 104.949 110.714 106.308 110.714ZM130.923 90.1429H121.077V83.2857H130.923V90.1429ZM133.828 69.5714L135.47 78.7143H151.556L147.312 70.8354C146.896 70.0606 146.044 69.5714 145.111 69.5714H133.828ZM118.172 69.5714H106.889C105.956 69.5714 105.104 70.0606 104.688 70.8354L100.444 78.7143H116.53L118.172 69.5714ZM121.52 78.7143L123.162 69.5714H128.838L130.48 78.7143H121.52Z" fill="#292524"/>
<path d="M130.864 102.545V120H126.125V102.545H130.864ZM139.825 120H133.109V102.545H139.757C141.553 102.545 143.104 102.895 144.411 103.594C145.723 104.287 146.734 105.287 147.445 106.594C148.161 107.895 148.518 109.455 148.518 111.273C148.518 113.091 148.163 114.653 147.453 115.96C146.743 117.261 145.737 118.261 144.436 118.96C143.135 119.653 141.598 120 139.825 120ZM137.848 115.977H139.655C140.518 115.977 141.254 115.838 141.862 115.56C142.476 115.281 142.942 114.801 143.26 114.119C143.584 113.437 143.746 112.489 143.746 111.273C143.746 110.057 143.581 109.108 143.251 108.426C142.928 107.744 142.45 107.264 141.82 106.986C141.195 106.707 140.428 106.568 139.518 106.568H137.848V115.977Z" fill="#292524"/>
</g>
</g>
<defs>
<clipPath id="clip0_19_60">
<rect width="209" height="160" fill="white"/>
</clipPath>
<clipPath id="clip1_19_60">
<rect x="104" y="56" width="82.5" height="82.5" rx="41.25" fill="white"/>
</clipPath>
</defs>
</svg>
