<svg width="1200" height="1200" viewBox="0 0 1200 1200" fill="none" xmlns="http://www.w3.org/2000/svg">
<path d="M357.832 170.61C329.965 179.81 311.032 191.01 296.098 207.01C286.232 217.41 275.432 233.41 272.098 242.21C270.632 246.344 266.498 252.077 260.365 258.61C244.098 275.81 208.898 321.544 208.898 325.41C208.898 326.077 208.365 326.61 207.565 326.61C205.832 326.61 205.832 319.81 207.698 315.01C208.365 313.01 211.565 308.61 214.765 305.277C222.365 297.277 230.232 286.744 243.565 266.61C256.232 247.41 264.765 231.01 268.632 218.61C272.232 206.744 278.498 177.677 277.965 175.01C277.432 171.81 239.832 205.01 229.165 218.21C212.898 238.077 202.098 267.01 201.832 291.277C201.698 300.077 202.232 304.344 203.965 307.41C205.698 310.744 205.832 312.61 204.765 316.077C204.098 318.61 203.565 323.277 203.698 326.61C203.965 331.677 202.898 334.344 197.565 343.277C175.965 379.544 155.432 429.544 145.032 471.277C141.165 486.877 136.898 509.01 136.898 513.544C136.898 519.144 133.965 517.677 131.698 511.01C129.965 506.077 129.965 504.877 132.765 496.477C136.498 485.277 144.098 446.877 146.898 426.077C150.498 398.077 149.698 389.944 138.765 341.41C138.098 338.344 137.965 338.344 136.365 340.744C132.498 346.21 112.498 391.81 109.165 402.61C106.098 412.877 105.698 416.077 105.698 436.61C105.565 454.477 106.098 461.41 108.098 469.277C111.432 482.744 118.765 497.944 123.565 501.544C126.232 503.41 127.832 506.077 128.365 509.144C129.432 515.81 131.565 521.144 133.698 522.344C135.032 523.144 135.165 526.077 133.965 537.944C131.965 559.544 133.432 613.81 136.765 635.944C141.032 664.344 148.632 698.344 154.765 715.544C157.432 723.144 154.898 723.277 148.498 715.944C144.765 711.544 143.832 709.144 143.298 702.877C142.098 690.344 128.498 642.477 119.432 619.01C112.632 601.81 104.632 588.477 88.2318 567.41C78.3652 554.744 74.7652 551.01 73.9652 552.477C73.2985 553.544 73.4318 569.677 74.0985 588.21C75.1652 615.01 75.9652 624.21 78.0985 632.61C83.0318 651.677 91.0318 668.477 101.298 681.944C113.298 697.677 130.898 711.944 138.365 711.944C141.298 711.944 143.032 713.277 146.098 717.81C148.365 721.01 152.098 724.477 154.498 725.677C158.232 727.41 159.432 729.41 162.765 738.21C181.298 788.21 212.765 839.544 250.765 881.544C262.632 894.61 263.432 895.944 260.232 895.944C254.232 895.944 247.032 891.277 242.632 884.344C231.432 867.144 182.232 814.744 164.898 801.81C155.698 794.877 111.698 770.61 108.232 770.61C107.832 770.61 107.832 771.944 108.365 773.544C110.232 779.944 134.232 827.677 139.165 835.277C157.165 862.744 185.032 884.077 214.898 893.144C224.765 896.21 239.165 897.01 243.032 894.877C244.898 893.81 247.032 894.344 251.832 896.744C255.298 898.477 260.365 899.944 262.898 899.944C267.165 899.944 269.698 901.677 283.298 913.677C319.698 945.944 347.432 964.477 392.765 987.277C409.832 995.677 420.099 1000.48 432.899 1005.54L436.232 1006.88L432.232 1008.74C426.499 1011.28 420.899 1011.01 415.565 1007.94C389.432 993.41 335.298 970.61 312.765 964.744C305.832 962.877 295.432 960.744 289.565 960.077C277.298 958.477 233.565 957.544 232.232 958.744C231.165 959.944 270.765 991.677 286.365 1002.08C308.098 1016.61 327.832 1023.81 353.165 1026.61C378.765 1029.54 408.232 1024.21 415.432 1015.41C416.765 1013.81 419.565 1013.28 425.832 1013.28C430.765 1013.28 435.965 1012.48 438.099 1011.28C441.699 1009.54 442.899 1009.68 453.699 1013.41C488.899 1025.41 540.232 1034.61 572.632 1034.61C580.632 1034.61 580.899 1034.48 580.899 1031.28C580.899 1027.94 580.632 1027.94 570.632 1027.94C555.165 1027.94 531.832 1025.54 511.565 1021.81C485.432 1017.01 484.099 1016.61 482.232 1011.94C481.299 1009.68 477.699 1005.81 474.099 1003.14C468.232 998.877 467.565 997.81 467.565 993.277C467.565 983.01 449.965 954.744 431.699 935.544C418.899 922.21 409.165 914.477 391.032 903.41C383.165 898.61 371.965 891.01 366.365 886.61C360.632 882.21 355.565 878.61 355.032 878.61C353.565 878.61 355.432 898.477 358.232 911.944C363.565 938.21 378.232 957.144 408.232 976.744C428.232 989.677 451.699 999.944 461.299 999.944C464.632 999.944 467.165 1001.28 471.299 1005.01C480.899 1013.94 479.032 1015.01 463.299 1010.08C413.699 994.477 351.699 961.81 312.632 931.01C305.165 925.144 303.565 923.144 303.565 920.077C303.565 917.944 301.832 912.877 299.698 908.877C296.765 903.41 296.232 901.144 297.432 899.944C299.832 897.544 298.898 875.41 295.698 861.81C289.032 832.61 282.098 815.677 267.432 793.277C262.232 785.144 255.032 773.277 251.698 767.01C248.365 760.744 245.032 755.544 244.232 755.544C242.365 755.677 234.632 780.477 232.765 792.077C231.032 803.41 232.098 815.677 235.832 827.944C243.298 852.344 267.965 886.61 287.165 899.41C291.032 901.944 295.032 905.677 296.098 907.677C298.765 913.01 299.832 918.61 298.232 918.61C294.365 918.61 256.498 881.277 239.432 860.61C219.432 836.344 199.698 806.21 185.565 778.21C179.298 765.81 179.165 765.01 180.765 760.61C181.698 757.944 182.232 752.877 182.098 749.277C181.832 744.077 182.365 741.944 184.498 739.677C191.832 731.677 198.098 711.277 201.698 683.41C204.098 665.81 203.565 651.144 200.232 631.944C199.165 625.677 197.832 614.477 197.298 606.877C196.898 599.41 195.965 593.277 195.432 593.277C194.098 593.277 185.432 602.477 178.498 611.277C164.765 628.61 159.565 644.344 159.565 668.077C159.565 693.544 166.632 724.077 175.698 737.81C179.298 743.144 179.832 744.877 179.165 750.077C177.965 761.144 176.365 759.544 168.632 739.677C148.232 687.677 136.898 630.344 136.898 580.344C136.898 567.01 137.165 565.277 139.432 564.077C140.765 563.277 143.298 559.41 144.898 555.544C147.298 549.944 148.765 548.077 152.098 546.877C161.432 543.41 185.565 513.81 196.765 491.944C200.365 485.01 205.565 472.077 208.232 463.277C210.898 454.477 215.032 442.61 217.165 436.877C219.298 431.277 220.898 425.944 220.632 425.277C220.365 424.477 212.765 427.544 203.565 432.077C189.032 439.277 185.565 441.677 176.765 450.477C157.298 470.21 144.765 503.544 144.365 537.277C144.232 547.81 143.565 552.344 141.832 555.544C136.765 565.01 135.965 560.477 138.232 534.61C142.365 489.677 156.098 437.544 175.032 395.544C179.032 386.61 183.298 377.144 184.365 374.477C185.832 370.877 187.432 369.41 190.232 368.877C192.365 368.344 196.232 366.077 199.032 363.677C202.098 361.01 205.032 359.41 206.898 359.677C214.232 360.61 234.232 351.677 254.098 338.61C268.765 329.01 277.832 320.744 290.632 305.277C295.832 299.01 303.698 290.21 308.098 285.544L315.965 277.277H306.765C275.432 277.41 254.232 286.477 232.765 308.877C221.165 321.01 207.298 341.144 203.965 350.744C201.698 357.01 194.632 365.277 191.565 365.277C189.298 365.277 190.098 363.41 199.965 346.21C216.365 317.41 238.765 286.61 260.898 262.477C269.832 252.744 273.032 250.21 282.498 245.677C294.632 239.81 321.565 222.344 334.632 211.677C344.365 203.81 350.499 197.41 360.232 184.61C364.099 179.41 369.165 173.544 371.432 171.41C375.432 167.544 376.632 165.144 374.632 165.41C373.965 165.41 366.499 167.81 357.832 170.61Z" fill="#292524"/>
<path d="M824.899 166.477C824.899 167.144 825.965 168.477 827.165 169.41C828.365 170.477 834.899 178.21 841.565 186.744C849.165 196.21 857.832 205.277 864.365 210.61C879.165 222.477 904.899 239.41 917.965 245.677C927.299 250.21 930.632 252.744 938.899 261.81C955.432 280.077 973.165 303.01 986.899 323.944C994.632 335.677 1010.23 362.61 1010.23 364.21C1010.23 369.544 997.832 357.544 995.965 350.344C991.965 335.677 964.365 302.344 947.165 291.41C932.099 281.81 911.299 276.61 892.365 277.544L884.365 277.944L888.765 281.944C891.165 284.077 898.632 292.61 905.565 300.61C912.365 308.744 922.365 319.544 927.832 324.61C944.632 340.21 978.365 358.61 991.032 359.144C995.165 359.41 997.832 360.477 1001.43 363.677C1004.1 365.944 1007.83 368.344 1009.83 368.744C1012.63 369.544 1014.63 372.477 1020.9 385.81C1044.77 436.077 1059.03 490.877 1063.03 546.877C1063.97 561.544 1062.77 563.41 1058.23 554.61C1055.97 550.077 1055.43 546.077 1055.03 531.544C1054.5 510.077 1050.77 495.41 1040.77 474.744C1035.17 463.144 1032.23 459.144 1023.83 450.744C1015.3 442.344 1010.9 439.144 998.499 432.877C990.232 428.744 982.365 425.277 980.899 425.277C978.365 425.277 978.365 425.41 981.032 431.544C982.632 435.144 987.299 448.744 991.699 461.944C996.899 477.544 1001.83 489.677 1005.83 496.61C1018.63 518.877 1041.3 545.277 1049.17 547.277C1051.57 547.944 1053.3 550.077 1055.43 555.41C1057.17 559.41 1059.7 563.544 1061.3 564.61C1063.83 566.477 1063.97 567.277 1063.17 588.877C1061.43 635.544 1052.77 681.277 1037.43 724.61C1032.23 739.544 1024.37 758.61 1023.43 758.61C1022.1 758.61 1020.9 753.277 1020.9 747.144C1020.9 743.41 1021.7 741.01 1023.43 739.41C1028.63 734.61 1036.63 710.077 1039.7 689.277C1040.5 683.277 1040.9 671.677 1040.63 662.877C1039.83 643.944 1036.5 633.144 1027.43 619.41C1020.9 609.41 1006.9 593.277 1004.77 593.277C1004.1 593.277 1003.57 596.477 1003.57 600.21C1003.57 604.077 1002.37 615.41 1000.9 625.277C995.432 661.677 996.099 680.477 1003.57 709.944C1007.83 726.877 1011.43 735.81 1015.7 740.077C1018.23 742.61 1018.63 744.344 1018.37 750.344C1018.23 754.344 1018.77 759.277 1019.57 761.277C1020.9 764.61 1020.37 766.477 1013.7 779.677C990.099 826.744 955.165 872.344 915.832 907.544C899.965 921.677 898.232 921.944 903.699 909.277C905.699 904.61 907.565 902.344 910.632 901.144C920.765 897.01 947.432 865.277 957.565 845.277C966.099 828.477 969.699 808.877 967.432 792.61C965.832 781.144 958.232 755.677 956.099 755.01C955.432 754.744 953.032 758.344 950.765 762.877C948.632 767.41 942.232 778.344 936.499 787.277C919.165 813.677 912.632 828.744 905.565 857.41C901.432 874.477 899.965 893.81 902.499 898.61C904.099 901.544 903.965 902.61 900.632 908.61C898.632 912.21 896.899 917.144 896.899 919.544C896.899 924.344 894.499 926.61 873.565 941.544C841.965 964.21 787.432 992.61 752.232 1004.88C727.565 1013.41 723.565 1014.48 723.565 1012.21C723.565 1011.14 726.099 1007.94 729.165 1005.01C733.299 1001.28 735.832 999.944 739.165 999.944C752.899 999.944 787.165 982.344 809.699 963.677C831.699 945.544 841.432 926.477 844.899 894.344C846.499 878.744 846.499 878.61 845.165 878.61C844.499 878.61 840.099 881.81 835.299 885.544C830.365 889.41 819.965 896.61 811.832 901.677C792.765 913.544 784.899 919.41 773.032 931.01C753.699 949.81 732.632 982.477 732.632 993.677C732.632 997.677 731.832 999.01 726.632 1002.61C723.432 1005.01 719.699 1008.88 718.499 1011.41C716.099 1016.61 717.165 1016.21 695.165 1020.61C675.165 1024.61 646.232 1027.94 630.632 1027.94C619.699 1027.94 619.565 1027.94 619.565 1031.28C619.565 1034.48 619.832 1034.61 627.965 1034.61C659.965 1034.61 711.699 1025.41 746.632 1013.41C757.299 1009.81 758.499 1009.54 761.965 1011.41C763.965 1012.48 769.299 1013.28 774.365 1013.28C781.965 1013.28 783.565 1013.68 786.232 1016.61C790.232 1020.88 803.032 1024.88 819.165 1026.74C842.232 1029.54 871.299 1024.48 893.299 1013.94C907.299 1007.41 920.099 998.61 943.565 979.81C954.899 970.744 965.032 962.61 966.232 961.677C970.632 958.21 965.165 957.677 936.232 958.744C909.965 959.544 905.299 960.077 891.565 963.677C866.899 970.077 806.499 994.744 789.699 1005.28C780.899 1010.88 775.165 1011.94 768.099 1009.28C763.565 1007.54 764.365 1006.88 777.565 1001.28C794.099 994.344 825.965 978.21 842.499 968.477C869.699 952.344 894.899 933.677 920.232 910.877C930.765 901.277 932.899 899.944 937.299 899.944C940.099 899.944 945.165 898.477 948.632 896.744C953.032 894.477 955.699 893.81 957.032 894.744C958.099 895.41 962.899 895.944 967.699 895.944C989.299 895.944 1021.03 880.077 1042.23 858.61C1054.9 845.81 1063.03 833.144 1077.97 803.277C1091.03 777.01 1093.83 770.61 1092.37 770.61C1091.83 770.61 1083.03 774.877 1072.5 780.077C1040.63 796.077 1027.57 805.677 1003.83 831.01C983.699 852.344 961.832 877.677 957.699 884.344C953.432 891.277 946.232 895.944 940.099 895.944C936.765 895.944 937.032 895.544 944.765 886.877C985.299 842.477 1014.77 795.81 1035.03 744.21C1040.77 729.677 1041.97 727.544 1046.23 725.144C1048.77 723.677 1052.63 720.077 1054.63 717.144C1057.03 713.944 1059.43 711.944 1061.17 711.944C1074.23 711.944 1099.57 685.944 1112.37 659.277C1122.37 638.61 1125.03 625.544 1126.1 590.61C1126.5 574.077 1126.63 558.21 1126.23 555.277L1125.57 549.944L1114.23 564.61C1097.83 585.677 1093.3 592.477 1086.63 605.944C1076.77 626.21 1056.9 692.344 1056.9 705.277C1056.9 709.544 1055.97 711.544 1051.83 715.944C1044.9 723.144 1043.17 722.877 1045.7 714.877C1054.37 686.744 1060.37 659.544 1064.23 630.61C1067.03 608.61 1068.23 561.01 1066.5 540.077C1065.17 525.81 1065.3 523.41 1067.03 521.544C1069.7 519.01 1071.57 514.077 1071.57 509.944C1071.57 508.077 1073.7 504.61 1076.77 501.41C1087.57 490.077 1093.97 470.477 1095.17 444.344C1096.1 426.077 1094.37 413.01 1089.43 397.677C1085.3 384.877 1063.43 338.21 1062.23 339.544C1061.3 340.744 1055.03 369.677 1052.9 382.61C1050.1 401.01 1051.83 423.144 1059.57 462.61C1061.7 473.944 1065.17 488.21 1067.03 494.21C1070.23 504.344 1070.37 505.677 1068.77 510.744C1067.7 513.944 1066.23 516.61 1065.57 516.877C1064.77 517.144 1063.17 510.877 1061.83 502.61C1053.7 453.144 1031.97 394.077 1004.37 345.944C997.165 333.41 995.965 330.61 996.499 326.344C996.899 323.677 996.499 319.41 995.565 316.744C994.365 313.01 994.499 311.41 996.099 308.077C999.299 302.077 998.899 282.477 995.432 268.21C989.832 245.544 980.099 227.544 965.032 211.41C956.765 202.744 923.832 173.277 922.232 173.277C921.032 173.277 928.365 209.01 931.832 219.277C935.832 231.677 942.499 244.477 953.165 261.277C965.299 280.21 985.032 306.744 988.765 308.877C991.432 310.61 994.232 317.944 994.232 323.544C994.232 328.21 992.632 327.277 988.232 320.21C978.499 304.477 955.832 275.81 939.032 257.544C933.432 251.544 928.899 245.544 928.899 244.21C928.899 240.744 918.099 223.144 909.699 213.01C893.832 193.81 873.165 180.877 842.365 170.744C823.965 164.61 824.899 164.877 824.899 166.477Z" fill="#292524"/>
</svg>
