<svg width="90" height="47" viewBox="0 0 90 47" fill="none" xmlns="http://www.w3.org/2000/svg">
<path d="M13 0V12H14L21 4H24V15H25L32 8H35V38L26 47H25V19H24V34L15.5 43H14V15H13V31L5 39H4V11L2 13H0V11L10 0H13Z" fill="#292524"/>
<path d="M38.8849 10.8182H41.5398L44.3438 17.6591H44.4631L47.267 10.8182H49.9219V21H47.8338V14.3729H47.7493L45.1143 20.9503H43.6925L41.0575 14.348H40.973V21H38.8849V10.8182ZM55.1358 21.1491C54.3503 21.1491 53.6742 20.9901 53.1074 20.6719C52.544 20.3504 52.1098 19.8963 51.8049 19.3097C51.4999 18.7197 51.3475 18.022 51.3475 17.2166C51.3475 16.4311 51.4999 15.7417 51.8049 15.1484C52.1098 14.5552 52.539 14.0928 53.0925 13.7614C53.6493 13.4299 54.3023 13.2642 55.0513 13.2642C55.5551 13.2642 56.0241 13.3454 56.4583 13.5078C56.8958 13.6669 57.2769 13.9072 57.6017 14.2287C57.9299 14.5502 58.1851 14.9545 58.3674 15.4418C58.5497 15.9257 58.6408 16.4924 58.6408 17.142V17.7237H52.1926V16.4112H56.6472C56.6472 16.1063 56.5809 15.8362 56.4483 15.6009C56.3158 15.3655 56.1318 15.1816 55.8965 15.049C55.6645 14.9131 55.3944 14.8452 55.0861 14.8452C54.7646 14.8452 54.4796 14.9197 54.231 15.0689C53.9857 15.2147 53.7935 15.4119 53.6543 15.6605C53.5151 15.9058 53.4438 16.1792 53.4405 16.4808V17.7287C53.4405 18.1065 53.5101 18.433 53.6493 18.7081C53.7918 18.9832 53.9924 19.1953 54.2509 19.3445C54.5094 19.4936 54.816 19.5682 55.1706 19.5682C55.406 19.5682 55.6214 19.535 55.8169 19.4688C56.0125 19.4025 56.1799 19.303 56.3191 19.1705C56.4583 19.0379 56.5643 18.8755 56.6373 18.6832L58.5961 18.8125C58.4966 19.2831 58.2928 19.6941 57.9846 20.0455C57.6796 20.3935 57.2852 20.6652 56.8013 20.8608C56.3207 21.053 55.7656 21.1491 55.1358 21.1491ZM62.1408 16.5852V21H60.0229V13.3636H62.0414V14.7109H62.1309C62.2999 14.2668 62.5833 13.9155 62.981 13.657C63.3787 13.3951 63.861 13.2642 64.4277 13.2642C64.958 13.2642 65.4204 13.3802 65.8148 13.6122C66.2092 13.8442 66.5158 14.1757 66.7346 14.6065C66.9533 15.0341 67.0627 15.5445 67.0627 16.1378V21H64.9448V16.5156C64.9481 16.0483 64.8288 15.6837 64.5868 15.4219C64.3449 15.1567 64.0118 15.0241 63.5875 15.0241C63.3025 15.0241 63.0506 15.0855 62.8319 15.2081C62.6164 15.3307 62.4474 15.5097 62.3248 15.745C62.2054 15.977 62.1441 16.2571 62.1408 16.5852ZM72.212 21.1491C71.4265 21.1491 70.7504 20.9901 70.1836 20.6719C69.6201 20.3504 69.186 19.8963 68.881 19.3097C68.5761 18.7197 68.4237 18.022 68.4237 17.2166C68.4237 16.4311 68.5761 15.7417 68.881 15.1484C69.186 14.5552 69.6152 14.0928 70.1687 13.7614C70.7255 13.4299 71.3784 13.2642 72.1275 13.2642C72.6313 13.2642 73.1003 13.3454 73.5344 13.5078C73.9719 13.6669 74.3531 13.9072 74.6779 14.2287C75.006 14.5502 75.2612 14.9545 75.4435 15.4418C75.6258 15.9257 75.717 16.4924 75.717 17.142V17.7237H69.2688V16.4112H73.7234C73.7234 16.1063 73.6571 15.8362 73.5245 15.6009C73.3919 15.3655 73.208 15.1816 72.9727 15.049C72.7406 14.9131 72.4705 14.8452 72.1623 14.8452C71.8408 14.8452 71.5558 14.9197 71.3072 15.0689C71.0619 15.2147 70.8697 15.4119 70.7305 15.6605C70.5913 15.9058 70.52 16.1792 70.5167 16.4808V17.7287C70.5167 18.1065 70.5863 18.433 70.7255 18.7081C70.868 18.9832 71.0685 19.1953 71.3271 19.3445C71.5856 19.4936 71.8922 19.5682 72.2468 19.5682C72.4821 19.5682 72.6976 19.535 72.8931 19.4688C73.0887 19.4025 73.256 19.303 73.3952 19.1705C73.5344 19.0379 73.6405 18.8755 73.7134 18.6832L75.6722 18.8125C75.5728 19.2831 75.369 19.6941 75.0607 20.0455C74.7558 20.3935 74.3614 20.6652 73.8775 20.8608C73.3969 21.053 72.8417 21.1491 72.212 21.1491ZM38.8849 24.8182H41.5398L44.3438 31.6591H44.4631L47.267 24.8182H49.9219V35H47.8338V28.3729H47.7493L45.1143 34.9503H43.6925L41.0575 28.348H40.973V35H38.8849V24.8182ZM53.8333 35.1442C53.3461 35.1442 52.9119 35.0597 52.5307 34.8906C52.1496 34.7183 51.848 34.4647 51.6259 34.13C51.4071 33.7919 51.2978 33.371 51.2978 32.8672C51.2978 32.4429 51.3757 32.0866 51.5314 31.7983C51.6872 31.5099 51.8993 31.2779 52.1678 31.1023C52.4363 30.9266 52.7412 30.794 53.0826 30.7045C53.4273 30.6151 53.7885 30.5521 54.1664 30.5156C54.6105 30.4692 54.9685 30.4261 55.2402 30.3864C55.512 30.3433 55.7092 30.2803 55.8319 30.1974C55.9545 30.1146 56.0158 29.992 56.0158 29.8295V29.7997C56.0158 29.4848 55.9164 29.2412 55.7175 29.0689C55.522 28.8965 55.2435 28.8104 54.8823 28.8104C54.5011 28.8104 54.1979 28.8949 53.9725 29.0639C53.7471 29.2296 53.598 29.4384 53.525 29.6903L51.5662 29.5312C51.6657 29.0672 51.8612 28.6662 52.1529 28.3281C52.4445 27.9867 52.8207 27.7249 53.2814 27.5426C53.7454 27.357 54.2824 27.2642 54.8922 27.2642C55.3165 27.2642 55.7225 27.3139 56.1103 27.4134C56.5014 27.5128 56.8477 27.6669 57.1493 27.8757C57.4542 28.0845 57.6945 28.353 57.8702 28.6811C58.0459 29.0059 58.1337 29.3954 58.1337 29.8494V35H56.1252V33.9411H56.0655C55.9429 34.1797 55.7788 34.3902 55.5733 34.5724C55.3678 34.7514 55.1209 34.8923 54.8326 34.995C54.5442 35.0945 54.2111 35.1442 53.8333 35.1442ZM54.4398 33.6825C54.7514 33.6825 55.0265 33.6212 55.2651 33.4986C55.5037 33.3726 55.691 33.2036 55.8269 32.9915C55.9628 32.7794 56.0307 32.5391 56.0307 32.2706V31.4602C55.9644 31.5033 55.8733 31.5431 55.7573 31.5795C55.6446 31.6127 55.517 31.6442 55.3745 31.674C55.2319 31.7005 55.0894 31.7254 54.9469 31.7486C54.8044 31.7685 54.6751 31.7867 54.5591 31.8033C54.3105 31.8397 54.0935 31.8977 53.9078 31.9773C53.7222 32.0568 53.5781 32.1645 53.4753 32.3004C53.3726 32.433 53.3212 32.5987 53.3212 32.7976C53.3212 33.0859 53.4256 33.3063 53.6344 33.4588C53.8465 33.608 54.115 33.6825 54.4398 33.6825ZM59.7768 35V27.3636H61.8301V28.696H61.9096C62.0488 28.2221 62.2825 27.8641 62.6106 27.6222C62.9387 27.3769 63.3166 27.2543 63.7441 27.2543C63.8502 27.2543 63.9645 27.2609 64.0872 27.2741C64.2098 27.2874 64.3175 27.3056 64.4103 27.3288V29.2081C64.3109 29.1783 64.1734 29.1518 63.9977 29.1286C63.822 29.1054 63.6613 29.0938 63.5154 29.0938C63.2039 29.0938 62.9255 29.1617 62.6802 29.2976C62.4383 29.4302 62.246 29.6158 62.1035 29.8544C61.9643 30.093 61.8947 30.3681 61.8947 30.6797V35H59.7768ZM67.4244 32.8026L67.4293 30.2621H67.7376L70.1836 27.3636H72.6147L69.3285 31.2017H68.8263L67.4244 32.8026ZM65.5053 35V24.8182H67.6232V35H65.5053ZM70.2781 35L68.0309 31.674L69.4428 30.1776L72.7589 35H70.2781ZM76.8194 35.1491C76.0339 35.1491 75.3578 34.9901 74.791 34.6719C74.2276 34.3504 73.7934 33.8963 73.4885 33.3097C73.1835 32.7197 73.0311 32.022 73.0311 31.2166C73.0311 30.4311 73.1835 29.7417 73.4885 29.1484C73.7934 28.5552 74.2226 28.0928 74.7761 27.7614C75.3329 27.4299 75.9859 27.2642 76.7349 27.2642C77.2387 27.2642 77.7077 27.3454 78.1419 27.5078C78.5794 27.6669 78.9605 27.9072 79.2853 28.2287C79.6135 28.5502 79.8687 28.9545 80.051 29.4418C80.2333 29.9257 80.3244 30.4924 80.3244 31.142V31.7237H73.8762V30.4112H78.3308C78.3308 30.1063 78.2645 29.8362 78.1319 29.6009C77.9993 29.3655 77.8154 29.1816 77.5801 29.049C77.3481 28.9131 77.0779 28.8452 76.7697 28.8452C76.4482 28.8452 76.1632 28.9197 75.9146 29.0689C75.6693 29.2147 75.4771 29.4119 75.3379 29.6605C75.1987 29.9058 75.1274 30.1792 75.1241 30.4808V31.7287C75.1241 32.1065 75.1937 32.433 75.3329 32.7081C75.4754 32.9832 75.676 33.1953 75.9345 33.3445C76.193 33.4936 76.4996 33.5682 76.8542 33.5682C77.0895 33.5682 77.305 33.535 77.5005 33.4688C77.6961 33.4025 77.8635 33.303 78.0027 33.1705C78.1419 33.0379 78.2479 32.8755 78.3208 32.6832L80.2797 32.8125C80.1802 33.2831 79.9764 33.6941 79.6681 34.0455C79.3632 34.3935 78.9688 34.6652 78.4849 34.8608C78.0043 35.053 77.4492 35.1491 76.8194 35.1491ZM85.7683 27.3636V28.9545H81.1696V27.3636H85.7683ZM82.2136 25.5341H84.3315V32.6534C84.3315 32.849 84.3613 33.0014 84.421 33.1108C84.4806 33.2169 84.5635 33.2914 84.6696 33.3345C84.7789 33.3776 84.9049 33.3991 85.0474 33.3991C85.1468 33.3991 85.2463 33.3909 85.3457 33.3743C85.4451 33.3544 85.5214 33.3395 85.5744 33.3295L85.9075 34.9055C85.8014 34.9387 85.6523 34.9768 85.46 35.0199C85.2678 35.0663 85.0342 35.0945 84.7591 35.1044C84.2486 35.1243 83.8012 35.0563 83.4167 34.9006C83.0356 34.7448 82.7389 34.5028 82.5268 34.1747C82.3147 33.8466 82.2103 33.4323 82.2136 32.9318V25.5341Z" fill="#292524"/>
</svg>
