<svg width="160" height="161" viewBox="0 0 160 161" fill="none" xmlns="http://www.w3.org/2000/svg">
<g clip-path="url(#clip0_117_8)">
<g clip-path="url(#clip1_117_8)">
<path d="M124 35V125C124 133 130.933 140 140 140C148.533 140 156 133.5 156 125V80H124" stroke="#292524" stroke-width="8" stroke-miterlimit="10" stroke-linecap="round" stroke-linejoin="round"/>
<path d="M41 44H108M41 60L108 60.5M41 76H87M124 22V123.143C124 130.448 128.4 136.629 135 138.876V140H47H41.5C32.15 140 25 132.133 25 123.143V22H124Z" stroke="#292524" stroke-width="8" stroke-miterlimit="10" stroke-linecap="round" stroke-linejoin="round"/>
<path d="M68 124.5C68 130.5 66.3198 136.181 63.3598 140.981C61.8398 143.541 59.9998 145.86 57.8398 147.7C57.5998 148.02 57.36 148.26 57.04 148.5C51.44 153.54 44.08 156.5 36 156.5C26.24 156.5 17.5198 152.1 11.7598 145.22C11.5998 144.98 11.3602 144.82 11.2002 144.58C10.2402 143.46 9.36016 142.261 8.64016 140.981C5.68016 136.181 4 130.5 4 124.5C4 114.42 8.64 105.38 16 99.54C17.36 98.42 18.7998 97.46 20.3198 96.66C24.9598 94.02 30.32 92.5 36 92.5C44 92.5 51.1998 95.38 56.7998 100.26C57.7598 100.98 58.6399 101.86 59.4399 102.74C64.7199 108.5 68 116.1 68 124.5Z" fill="#FEF6EB" stroke="#292524" stroke-width="8" stroke-miterlimit="10" stroke-linecap="round" stroke-linejoin="round"/>
<path d="M36 113V137" stroke="#DED0B6" stroke-width="8" stroke-miterlimit="10" stroke-linecap="round" stroke-linejoin="round"/>
<path d="M48 125H36H24" stroke="#DED0B6" stroke-width="8" stroke-miterlimit="10" stroke-linecap="round" stroke-linejoin="round"/>
</g>
</g>
<defs>
<clipPath id="clip0_117_8">
<rect width="160" height="160" fill="white" transform="translate(0 0.5)"/>
</clipPath>
<clipPath id="clip1_117_8">
<rect width="160" height="160" fill="white" transform="translate(0 0.5)"/>
</clipPath>
</defs>
</svg>
