<svg width="520" height="520" viewBox="0 0 520 520" fill="none" xmlns="http://www.w3.org/2000/svg">
<path d="M287.5 437V214.5M287.5 437L397.978 374.15C399.228 373.439 400 372.112 400 370.674V256.303M287.5 437L126.323 387.369C124.645 386.853 123.5 385.302 123.5 383.546V270.424M287.5 214.5L400 160.5M287.5 214.5L322.774 289.338C323.724 291.353 326.137 292.204 328.141 291.23L400 256.303M287.5 214.5L123.5 180.5M287.5 214.5L229.598 295.27C228.635 296.614 226.945 297.227 225.344 296.812L74.654 257.768C71.9322 257.063 70.7682 253.843 72.4095 251.561L123.5 180.5M400 160.5L447.314 228.159C448.724 230.175 447.997 232.974 445.785 234.049L400 256.303M400 160.5L247.991 137.152C247.34 137.052 246.675 137.114 246.055 137.333L123.5 180.5" stroke="#292524" stroke-width="12" stroke-linecap="round" stroke-linejoin="round"/>
<path d="M272 209V209C243.776 200.453 248.677 159.092 278.117 157.378L295.905 156.342C322.659 154.785 333.709 121.292 313.134 104.12L307 99" stroke="#292524" stroke-width="3" stroke-linecap="round" stroke-linejoin="round" stroke-dasharray="5 5"/>
<path d="M290 75L304.132 86.9007C306.751 89.1057 306.921 93.0794 304.5 95.5C302.079 97.9206 298.106 97.7506 295.901 95.1321L284 81C280.686 81 278 78.3137 278 75C278 71.6863 280.686 69 284 69C287.314 69 290 71.6863 290 75Z" fill="#292524" fill-opacity="0.17"/>
<path d="M290 75V75C290 71.6863 287.314 69 284 69V69C280.686 69 278 71.6863 278 75V75C278 78.3137 280.686 81 284 81V81M290 75V75C290 78.3137 287.314 81 284 81V81M290 75L304.132 86.9007C306.751 89.1057 306.921 93.0794 304.5 95.5V95.5C302.079 97.9206 298.106 97.7506 295.901 95.1321L284 81" stroke="#292524" stroke-width="3" stroke-linecap="round" stroke-linejoin="round"/>
<path d="M295.536 93.8306L293.168 84.9935C292.318 81.8214 289.058 79.939 285.886 80.789C283.931 81.3126 282.377 82.7941 281.761 84.7212L280.995 87.1168C279.86 90.664 280.68 94.5466 283.151 97.333L285.049 99.4734C286.586 101.207 288.971 101.924 291.21 101.324C294.474 100.449 296.411 97.0945 295.536 93.8306Z" fill="#FEF6EB" stroke="#292524" stroke-width="3" stroke-linecap="round" stroke-linejoin="round"/>
<path d="M295.41 85.3956L304.247 87.7635C307.419 88.6135 310.679 86.731 311.529 83.559C312.053 81.6047 311.547 79.5182 310.186 78.0209L308.495 76.1596C305.99 73.4035 302.218 72.1717 298.569 72.9184L295.767 73.4919C293.496 73.9565 291.683 75.6639 291.083 77.9024C290.209 81.1662 292.146 84.5211 295.41 85.3956Z" fill="#FEF6EB" stroke="#292524" stroke-width="3" stroke-linecap="round" stroke-linejoin="round"/>
</svg>
