<svg width="112" height="112" viewBox="0 0 112 112" fill="none" xmlns="http://www.w3.org/2000/svg">
<g clip-path="url(#clip0_172_2)">
<path d="M77 31.5H91.336C92.203 31.5009 93.0389 31.8235 93.6817 32.4055C94.3244 32.9875 94.7283 33.7873 94.815 34.65L96.95 56H89.908L88.158 38.5H77V49C77 49.9283 76.6312 50.8185 75.9749 51.4749C75.3185 52.1312 74.4282 52.5 73.5 52.5C72.5717 52.5 71.6815 52.1312 71.0251 51.4749C70.3687 50.8185 70 49.9283 70 49V38.5H42V49C42 49.9283 41.6312 50.8185 40.9749 51.4749C40.3185 52.1312 39.4282 52.5 38.5 52.5C37.5717 52.5 36.6815 52.1312 36.0251 51.4749C35.3687 50.8185 35 49.9283 35 49V38.5H23.835L18.235 94.5H56V101.5H14.364C13.8751 101.5 13.3918 101.397 12.9451 101.198C12.4985 100.999 12.0984 100.709 11.7706 100.347C11.4429 99.9839 11.1947 99.5565 11.0422 99.0921C10.8896 98.6277 10.8361 98.1364 10.885 97.65L17.185 34.65C17.2717 33.7873 17.6755 32.9875 18.3183 32.4055C18.961 31.8235 19.7969 31.5009 20.664 31.5H35V29.057C35 16.919 44.352 7 56 7C67.648 7 77 16.919 77 29.057V31.507V31.5ZM70 31.5V29.057C70 20.699 63.686 14 56 14C48.314 14 42 20.699 42 29.057V31.507H70V31.5Z" fill="black"/>
<path d="M63.2635 63.2634L79.5269 79.5269M95.7904 95.7903L79.5269 79.5269M79.5269 79.5269L95.7903 63.2635M79.5269 79.5269L63.2635 95.7903" stroke="black" stroke-width="7"/>
</g>
<defs>
<clipPath id="clip0_172_2">
<rect width="112" height="112" fill="white"/>
</clipPath>
</defs>
</svg>
