<svg width="160" height="161" viewBox="0 0 160 161" fill="none" xmlns="http://www.w3.org/2000/svg">
    <g clip-path="url(#clip0_69_24)">
        <path
            d="M73.3333 100.5H53.3333C40.9081 100.5 34.6956 100.5 29.7951 102.53C23.2609 105.237 18.0697 110.428 15.3631 116.962C13.3333 121.863 13.3333 128.075 13.3333 140.5M103.333 22.4384C113.106 26.3943 120 35.9754 120 47.1667M89.9999 47.1667C89.9999 61.8943 78.0606 73.8333 63.3333 73.8333C48.6057 73.8333 36.6666 61.8943 36.6666 47.1667C36.6666 32.4391 48.6057 20.5 63.3333 20.5C78.0606 20.5 89.9999 32.4391 89.9999 47.1667Z"
            stroke="#292524" stroke-width="10" stroke-linecap="round" stroke-linejoin="round" />
        <path
            d="M139.832 143.991C141.785 145.944 144.95 145.944 146.903 143.991C148.856 142.039 148.856 138.873 146.903 136.92L139.832 143.991ZM95.9914 86.0086C94.0388 84.056 90.8729 84.056 88.9203 86.0086C86.9677 87.9612 86.9677 91.1271 88.9203 93.0797L95.9914 86.0086ZM88.9203 136.92C86.9677 138.873 86.9677 142.039 88.9203 143.991C90.8729 145.944 94.0388 145.944 95.9914 143.991L88.9203 136.92ZM146.903 93.0797C148.856 91.1271 148.856 87.9612 146.903 86.0086C144.95 84.056 141.785 84.056 139.832 86.0086L146.903 93.0797ZM146.903 136.92L121.447 111.464L114.376 118.536L139.832 143.991L146.903 136.92ZM121.447 111.464L95.9914 86.0086L88.9203 93.0797L114.376 118.536L121.447 111.464ZM114.376 111.464L88.9203 136.92L95.9914 143.991L121.447 118.536L114.376 111.464ZM121.447 118.536L146.903 93.0797L139.832 86.0086L114.376 111.464L121.447 118.536ZM139.832 86.0086L88.9203 136.92L95.9914 143.991L146.903 93.0797L139.832 86.0086Z"
            fill="#292524" />
    </g>
    <defs>
        <clipPath id="clip0_69_24">
            <rect width="160" height="160" fill="white" transform="translate(0 0.5)" />
        </clipPath>
    </defs>
</svg>