<svg width="160" height="160" viewBox="0 0 160 160" fill="none" xmlns="http://www.w3.org/2000/svg">
<path d="M140 75V104.913C140 134.827 128.073 146.819 98.0903 146.819C98.0903 146.819 75.4635 147.227 62.1774 146.819C40.4896 146.152 21.9999 134.427 22 104.68C22.0001 74.9334 22 86.6921 22 75" stroke="#292524" stroke-width="8" stroke-linecap="round" stroke-linejoin="round"/>
<path d="M80.2 80C92.4 80 101.4 70.0674 100.2 57.867L95.7333 13.3334H64.6001L60.1335 57.867C58.9335 70.0674 68 80 80.2 80Z" stroke="#292524" stroke-width="8" stroke-linecap="round" stroke-linejoin="round"/>
<path d="M122.2 80C135.667 80 145.533 69.0667 144.2 55.6666L142.333 37.3332C139.933 19.9999 133.267 13.3334 115.8 13.3334H95.4666L100.133 60.0668C101.333 71.0667 111.2 80 122.2 80Z" stroke="#292524" stroke-width="8" stroke-linecap="round" stroke-linejoin="round"/>
<path d="M37.7999 80C48.7999 80 58.7331 71.0667 59.7998 60.0668L61.2667 45.3337L64.4666 13.3334H44.1333C26.6667 13.3334 20.0001 19.9999 17.6001 37.3332L15.7333 55.6666C14.3999 69.0667 24.3333 80 37.7999 80Z" stroke="#292524" stroke-width="8" stroke-linecap="round" stroke-linejoin="round"/>
<path d="M152 124C152 130 150.32 135.681 147.36 140.481C145.84 143.041 144 145.36 141.84 147.2C141.6 147.52 141.36 147.76 141.04 148C135.44 153.04 128.08 156 120 156C110.24 156 101.52 151.6 95.7598 144.72C95.5998 144.48 95.3602 144.32 95.2002 144.08C94.2402 142.96 93.3602 141.761 92.6402 140.481C89.6802 135.681 88 130 88 124C88 113.92 92.64 104.88 100 99.04C101.36 97.92 102.8 96.96 104.32 96.16C108.96 93.52 114.32 92 120 92C128 92 135.2 94.88 140.8 99.76C141.76 100.48 142.64 101.36 143.44 102.24C148.72 108 152 115.6 152 124Z" fill="#FEF6EB" stroke="#292524" stroke-width="8" stroke-miterlimit="10" stroke-linecap="round" stroke-linejoin="round"/>
<path d="M132 125H108" stroke="#DED0B6" stroke-width="8" stroke-miterlimit="10" stroke-linecap="round" stroke-linejoin="round"/>
<path d="M132.142 125.142L118 111" stroke="#DED0B6" stroke-width="8" stroke-miterlimit="10" stroke-linecap="round" stroke-linejoin="round"/>
<path d="M132.142 125L118 139.142" stroke="#DED0B6" stroke-width="8" stroke-miterlimit="10" stroke-linecap="round" stroke-linejoin="round"/>
</svg>
