<svg width="160" height="160" viewBox="0 0 160 160" fill="none" xmlns="http://www.w3.org/2000/svg">
<path d="M142.516 42.3137H121.677V65.4118V86.0784L111.258 101.275L39.5483 103.098C39.5483 103.098 39.5483 106.745 39.5483 114.039C39.5483 121.333 44.4516 126.196 51.8064 126.196C59.1612 126.196 131.484 124.373 137 126.196C142.516 128.02 156 142 156 142V114.039V54.4706C156 47.8355 149.738 42.3137 142.516 42.3137Z" stroke="#292524" stroke-width="8" stroke-linecap="round" stroke-linejoin="round"/>
<path d="M108.602 18H17.0753C9.85399 18 4 23.3788 4 30.0138V102.097V120.118L26.6638 104.5C28.9271 102.94 31.6799 102.097 34.509 102.097H108.602C115.824 102.097 121.677 96.7183 121.677 90.0831V30.0138C121.677 23.3788 115.824 18 108.602 18Z" fill="#FEF6EB" stroke="#292524" stroke-width="8" stroke-linecap="round" stroke-linejoin="round"/>
<path d="M58.5638 34.8711C60.944 32.2577 65.0558 32.2577 67.436 34.8711L69.6425 37.2939C70.8452 38.6146 72.5741 39.3308 74.3585 39.2474L77.6321 39.0944C81.1628 38.9294 84.0707 41.8371 83.9054 45.3679L83.7527 48.6413C83.6693 50.4258 84.3854 52.1546 85.706 53.3575L88.1288 55.5639C90.7424 57.9441 90.7424 62.0559 88.1288 64.4361L85.706 66.6426C84.3854 67.8453 83.6693 69.5742 83.7527 71.3586L83.9054 74.6322C84.0707 78.1629 81.1628 81.0708 77.6321 80.9055L74.3585 80.7528C72.5741 80.6694 70.8452 81.3855 69.6425 82.7061L67.436 85.1289C65.0558 87.7425 60.944 87.7425 58.5638 85.1289L56.3574 82.7061C55.1545 81.3855 53.4257 80.6694 51.6412 80.7528L48.3678 80.9055C44.8369 81.0708 41.9292 78.1629 42.0943 74.6322L42.2472 71.3586C42.3306 69.5742 41.6145 67.8453 40.2937 66.6426L37.8709 64.4361C35.2575 62.0559 35.2575 57.9441 37.8709 55.5639L40.2937 53.3575C41.6145 52.1546 42.3306 50.4258 42.2472 48.6413L42.0943 45.3679C41.9292 41.8371 44.8369 38.9294 48.3678 39.0944L51.6412 39.2474C53.4257 39.3308 55.1545 38.6146 56.3574 37.2939L58.5638 34.8711Z" stroke="#DED0B6" stroke-width="8"/>
<path d="M63 69C67.9706 69 72 64.9706 72 60C72 55.0294 67.9706 51 63 51C58.0294 51 54 55.0294 54 60C54 64.9706 58.0294 69 63 69Z" stroke="#DED0B6" stroke-width="8"/>
</svg>
