<svg width="32" height="32" viewBox="0 0 32 32" fill="none" xmlns="http://www.w3.org/2000/svg">
<g clip-path="url(#clip0_127_4)">
<path fill-rule="evenodd" clip-rule="evenodd" d="M14.577 6.52566C15.0121 5.22027 16.7944 5.16094 17.352 6.34765L17.423 6.52566L21.9985 20.257L23.577 15.5257C23.7626 14.9688 24.2532 14.5768 24.8259 14.5101L25 14.5H26.5C27.3284 14.5 28 15.1716 28 16C28 16.7693 27.4209 17.4033 26.6749 17.4899L26.5 17.5H26.08L23.423 25.4743C22.9879 26.7797 21.2056 26.8391 20.648 25.6523L20.577 25.4743L16 11.7415L12.923 20.9743C12.5012 22.2397 10.792 22.3469 10.1861 21.2256L10.1073 21.0571L8.4415 16.894L8.33526 17.025C8.09652 17.28 7.773 17.4468 7.41918 17.4893L7.24 17.5H5.5C4.67157 17.5 4 16.8284 4 16C4 15.2307 4.57906 14.5967 5.32507 14.5101L5.5 14.5H6.2425L7.11703 12.4192C7.6118 11.2411 9.22984 11.1987 9.81324 12.2733L9.89271 12.4429L11.371 16.141L14.577 6.52566Z" fill="#292524"/>
</g>
<defs>
<clipPath id="clip0_127_4">
<rect width="24" height="24" fill="white" transform="translate(4 4)"/>
</clipPath>
</defs>
</svg>
