<svg width="160" height="160" viewBox="0 0 160 160" fill="none" xmlns="http://www.w3.org/2000/svg">
<g opacity="0.4">
<path d="M63.3333 91.668C63.3333 98.1347 68.3333 103.335 74.4666 103.335H86.9999C92.3333 103.335 96.6666 98.8014 96.6666 93.1347C96.6666 87.068 93.9999 84.868 90.0666 83.468L69.9999 76.468C66.0666 75.068 63.4 72.9347 63.4 66.8014C63.4 61.2016 67.7333 56.6016 73.0666 56.6016H85.5999C91.7333 56.6016 96.7333 61.8016 96.7333 68.268" stroke="#DED0B6" stroke-width="8" stroke-linecap="round" stroke-linejoin="round"/>
<path d="M80 50V110" stroke="#DED0B6" stroke-width="8" stroke-linecap="round" stroke-linejoin="round"/>
</g>
<path d="M146.667 80C146.667 116.8 116.8 146.667 79.9999 146.667C43.1999 146.667 13.3333 116.8 13.3333 80C13.3333 43.2 43.1999 13.3334 79.9999 13.3334" stroke="#292524" stroke-width="8" stroke-linecap="round" stroke-linejoin="round"/>
<path d="M146.667 40V13.3334H120" stroke="#292524" stroke-width="8" stroke-linecap="round" stroke-linejoin="round"/>
<path d="M113.333 46.6667L146.667 13.3334" stroke="#292524" stroke-width="8" stroke-linecap="round" stroke-linejoin="round"/>
</svg>
