<svg width="28" height="28" viewBox="0 0 28 28" fill="none" xmlns="http://www.w3.org/2000/svg">
<path fill-rule="evenodd" clip-rule="evenodd" d="M4.61439 2.625C4.63174 2.62502 4.64915 2.62502 4.6666 2.62502L23.3855 2.625C23.8905 2.62495 24.3534 2.6249 24.73 2.67553C25.1447 2.73129 25.5831 2.86248 25.9436 3.223C26.3042 3.58353 26.4353 4.02188 26.4911 4.4366C26.5417 4.81322 26.5417 5.2762 26.5416 5.78114V5.88555C26.5417 6.3905 26.5417 6.85347 26.4911 7.23008C26.4353 7.64481 26.3042 8.08316 25.9436 8.44368C25.6009 8.78642 25.1878 8.92189 24.7916 8.98233V15.2325C24.7916 17.3766 24.7916 19.0748 24.613 20.4038C24.429 21.7718 24.0415 22.8788 23.1685 23.7519C22.2954 24.625 21.1883 25.0124 19.8204 25.1964C18.4914 25.375 16.7932 25.375 14.6491 25.375H13.3508C11.2067 25.375 9.50849 25.375 8.1794 25.1964C6.81158 25.0124 5.70447 24.625 4.83138 23.7519C3.95829 22.8788 3.57082 21.7718 3.38692 20.4038C3.20823 19.0748 3.20824 17.3766 3.20827 15.2325V8.98233C2.81203 8.92189 2.39899 8.78642 2.05625 8.44368C1.69573 8.08316 1.56454 7.64481 1.50878 7.23008C1.45815 6.85347 1.4582 6.3905 1.45826 5.88556C1.45827 5.8682 1.45827 5.85079 1.45827 5.83335C1.45827 5.8159 1.45827 5.79849 1.45826 5.78114C1.4582 5.27618 1.45815 4.81322 1.50878 4.4366C1.56454 4.02188 1.69573 3.58353 2.05625 3.223C2.41678 2.86248 2.85513 2.73129 3.26986 2.67553C3.64647 2.6249 4.10944 2.62495 4.61439 2.625ZM4.95827 9.04168V15.1667C4.95827 17.3913 4.96012 18.9718 5.12132 20.1707C5.27912 21.3444 5.57507 22.0207 6.06882 22.5145C6.56256 23.0082 7.23882 23.3042 8.41259 23.4619C9.55846 23.616 11.0528 23.6245 13.1249 23.625V16.2803L11.1503 18.4743C10.827 18.8334 10.2738 18.8626 9.91458 18.5393C9.55539 18.216 9.52627 17.6628 9.84955 17.3035L13.3495 13.4147C13.5155 13.2302 13.7519 13.125 13.9999 13.125C14.248 13.125 14.4843 13.2302 14.6503 13.4147L18.1503 17.3035C18.4736 17.6628 18.4445 18.216 18.0852 18.5393C17.726 18.8626 17.1728 18.8334 16.8495 18.4743L14.8749 16.2803V23.625C16.947 23.6245 18.4414 23.616 19.5873 23.4619C20.761 23.3042 21.4373 23.0082 21.931 22.5145C22.4248 22.0207 22.7208 21.3444 22.8785 20.1707C23.0397 18.9718 23.0416 17.3913 23.0416 15.1667V9.04168H4.95827ZM3.2937 4.46045L3.29655 4.45885C3.2988 4.45767 3.30267 4.45578 3.30855 4.45337C3.33396 4.44292 3.39038 4.42507 3.50304 4.40992C3.74888 4.37687 4.09189 4.37502 4.6666 4.37502H23.3333C23.908 4.37502 24.251 4.37687 24.4968 4.40992C24.6095 4.42507 24.6659 4.44292 24.6913 4.45337C24.6972 4.45578 24.7011 4.45767 24.7033 4.45885L24.7062 4.46044L24.7077 4.4633C24.709 4.46555 24.7109 4.46942 24.7132 4.4753C24.7237 4.50071 24.7415 4.55713 24.7567 4.66979C24.7897 4.91563 24.7916 5.25864 24.7916 5.83335C24.7916 6.40805 24.7897 6.75106 24.7567 6.9969C24.7415 7.10955 24.7237 7.16597 24.7132 7.19138C24.7109 7.19728 24.709 7.20114 24.7077 7.2034L24.7062 7.20625L24.7033 7.20785C24.7011 7.20902 24.6972 7.2109 24.6913 7.21333C24.6659 7.22378 24.6095 7.24162 24.4968 7.25676C24.251 7.28982 23.908 7.29168 23.3333 7.29168H4.6666C4.09189 7.29168 3.74888 7.28982 3.50304 7.25676C3.39038 7.24162 3.33396 7.22378 3.30855 7.21333C3.30267 7.2109 3.2988 7.20902 3.29655 7.20785L3.2937 7.20624L3.2921 7.2034C3.29093 7.20114 3.28904 7.19728 3.28662 7.19138C3.27617 7.16597 3.25832 7.10955 3.24317 6.9969C3.21012 6.75106 3.20827 6.40805 3.20827 5.83335C3.20827 5.25864 3.21012 4.91563 3.24317 4.66979C3.25832 4.55713 3.27617 4.50071 3.28662 4.4753C3.28904 4.46942 3.29093 4.46555 3.2921 4.4633L3.2937 4.46045ZM3.2937 7.20624C3.29339 7.20585 3.29324 7.20576 3.2937 7.20624Z" fill="#292524"/>
</svg>
